<svg xmlns="http://www.w3.org/2000/svg" width="25" height="40.18" viewBox="0 0 25 40.18"><defs><style>.a{fill:#1e6fa2;}</style></defs><path class="a" d="M29.979,4.086H22.665A6.477,6.477,0,0,0,21.72.878,1.981,1.981,0,0,0,20.083,0H14.875a1.981,1.981,0,0,0-1.637.878,6.478,6.478,0,0,0-.944,3.208H6.021a.617.617,0,0,0-.521.681.617.617,0,0,0,.521.681H7.084l1,31.342c.019,1.173.578,3.391,2.556,3.391H25.363c1.979,0,2.537-2.218,2.556-3.377l1-31.356h1.063a.617.617,0,0,0,.521-.681A.617.617,0,0,0,29.979,4.086ZM13.313,34.051a.617.617,0,0,1-.521.681.617.617,0,0,1-.521-.681V11.577a.617.617,0,0,1,.521-.681.617.617,0,0,1,.521.681Zm5.208,0a.617.617,0,0,1-.521.681.617.617,0,0,1-.521-.681V11.577A.617.617,0,0,1,18,10.9a.617.617,0,0,1,.521.681Zm5.208,0a.54.54,0,1,1-1.042,0V11.577a.54.54,0,1,1,1.042,0ZM13.985,1.826a1.057,1.057,0,0,1,.89-.464h5.208a1.057,1.057,0,0,1,.89.464,4.806,4.806,0,0,1,.646,2.26H13.34A4.811,4.811,0,0,1,13.985,1.826Z" transform="translate(-5.5)"/></svg>