<svg xmlns="http://www.w3.org/2000/svg" width="30" height="34.441" viewBox="0 0 30 34.441"><defs><style>.a{fill:#1e6fa2;}</style></defs><path class="a" d="M28.9,10.4l-1.326,1.523L19.621,2.788l1.326-1.523a3.419,3.419,0,0,1,5.3,0L28.9,4.31A4.772,4.772,0,0,1,28.9,10.4ZM10.34,28.662a1.191,1.191,0,0,0,0,1.522.852.852,0,0,0,1.326,0L26.252,13.443,24.924,11.92Zm-6.63-7.61a1.191,1.191,0,0,0,0,1.522.854.854,0,0,0,1.326,0L19.621,5.832,18.3,4.31Zm17.236-13.7L6.361,24.1a2.386,2.386,0,0,0,0,3.044,1.707,1.707,0,0,0,2.653,0L23.6,10.4ZM9.011,31.7a3.362,3.362,0,0,1-.745-1.842,3.313,3.313,0,0,1-.579.065,3.5,3.5,0,0,1-2.651-1.263,4.621,4.621,0,0,1-1.1-3.044A4.908,4.908,0,0,1,3.99,25a2.661,2.661,0,0,1-1.606-.9c-.042-.048-.057-.113-.1-.166L0,34.444l9.135-2.625C9.095,31.777,9.049,31.745,9.011,31.7Z" transform="translate(0 -0.004)"/></svg>